<svg xmlns="http://www.w3.org/2000/svg" viewBox="0 0 2546 2546">
  <rect width="2546" height="2546" rx="480" fill="#0a0a0c"/>
  <svg x="150" y="150" width="2246" height="2246" viewBox="0 0 7112 2546" preserveAspectRatio="xMidYMid meet"><path d="M861.609.054c6.143-.597 12.708 4.353 16.991 8.285 9.444 8.987 8.426 23.345 10.076 35.246 2.668 18.676.983 37.422 3.475 56.098 2.633 17.482 1.545 35.141 4.353 52.624 5.582 89.168 14.077 178.197 20.01 267.4 11.094 138.282 20.853 275.861 31.736 413.932 2.844 18.606 1.194 37.386 4.494 55.957 3.3 56.31 9.513 112.655 12.672 169.069 3.266 18.502 1.581 37.142 4.6 55.643 2.036 14.043.948 28.12 2.949 42.162 2.668 17.483 1.72 35.141 4.458 52.623 1.123 25.172 4.563 49.956 5.266 75.162 3.37 21.73 1.931 43.601 5.476 65.297 1.896 39.037 6.916 77.759 8.601 116.726 3.23 20.712 1.861 41.565 5.266 62.243 3.089 56.625 9.338 113.322 12.392 169.946 3.265 19.413 1.896 38.967 4.915 58.381 4.072 57.257 9.022 115.287 12.884 172.79 3.125 18.395 1.51 36.931 4.458 55.327 2.177 15.2 1.124 30.506 3.44 45.707 4.705 50.237 7.233 100.683 12.007 150.779.667 16.043-1.228 35.632 5.863 50.342 5.547-21.766 6.424-44.936 8.565-67.227 17.729-189.957 35.914-379.845 53.712-569.766 2.949-21.835 1.966-43.18 7.407-64.91 3.722-12.217 14.955-21.765 28.121-20.923 21.098 0 42.407.14 63.47 1.334 39.6 4.739 80.638-.457 120.343 5.055 20.221 1.018 41.285 1.088 61.54.773 6.635.14 9.9-4.67 14.253-8.847 67.296-77.83 135.893-154.395 203.472-231.874 12.533-14.217 24.539-29.559 38.756-42.161 7.829-6.355 16.852-11.41 26.856-6.425 12.919 7.161 22.398 22.011 31.49 33.386 57.82 73.16 117.148 145.197 174.336 218.884 5.405 6.67 11.092 12.181 20.325 11.971 146.427.281 292.958.948 438.962 1.159 12.919-.036 25.592 2.457 38.51 2.351 71.371-.035 4588.45 18.57 4659.86 18.641l.503 65.336s-4895.29-41.639-5134.39-41.639c-12.392 0-27.523-1.228-38.055-8.355-11.163-8.215-19.834-21.239-28.505-32.016-46.832-58.347-93.416-117.008-140.458-175.249-11.234-13.656-20.678-28.716-33.596-40.125-29.84 34.403-60.488 68.175-89.871 102.93-39.67 44.549-79.269 89.168-118.482 134.139-10.742 12.252-21.238 26.259-33.911 36.545-6.495 5.161-14.113 7.197-22.328 7.126-19.658.211-39.178.14-58.661-2.457-31.912-1.931-64.103.21-95.98-2.176-18.746-2.809-37.387-2.142-56.274-2.529-9.689-.069-19.132-.772-28.716 1.229-3.826 20.116-3.967 40.267-6.039 60.558-27.241 290.113-54.659 580.262-82.357 870.339-1.194 15.235 1.298 36.862-8.356 49.675-7.793 11.619-25.943 12.042-34.263.912-10.461-12.427-5.722-31.559-7.933-46.936-3.336-20.396-1.967-40.967-5.091-61.364-3.511-56.695-9.128-113.672-12.744-170.368-3.229-18.641-1.474-37.423-4.353-56.028-2.176-15.166-1.263-30.472-3.511-45.638-2.387-17.658-.877-35.317-3.685-52.905-2.317-24.644-4.985-49.042-5.653-73.792-3.229-18.571-2.316-37.282-4.703-55.888-13.902-180.198-27.593-360.359-41.706-540.522-4.318-46.971-5.968-94.083-11.374-140.563-1.896-45.532-6.846-91.169-9.619-136.877-5.372-66.596-9.9-134.28-15.763-200.805-.035-15.552-1.825-30.647-3.511-46.059-.632-21.941-3.054-43.741-5.09-65.612-3.019-19.589-1.264-39.318-4.423-58.907-6.003-89.309-14.112-182.655-20.431-271.051-2.739-18.396-1.44-37.002-4.494-55.397-2.317-33.632-3.616-67.755-9.549-101-5.231 12.393-5.546 24.399-5.511 37.599-3.932 51.534-7.689 106.019-11.515 157.765-3.054 18.536-1.229 37.248-4.177 55.819-2.282 16.393-.668 32.788-3.3 49.182-2.633 16.325-1.194 32.683-3.582 49.043-2.071 15.131-1.298 30.366-3.615 45.462-2.072 15.306-.913 30.647-3.125 45.918-2.808 17.939-.912 35.878-3.651 53.817-2.948 18.501-1.053 37.211-4.072 55.782-2.072 25.768-4.809 51.325-5.512 77.233-3.37 21.87-1.685 43.847-5.09 65.683-1.65 14.217-.632 28.435-2.668 42.653-3.054 19.659-1.229 39.459-4.599 59.118-2.106 43.953-7.056 87.448-8.987 131.401-3.195 18.36-1.545 36.826-4.037 55.221-3.02 19.659-1.405 39.53-4.634 59.223-2.106 42.969-7.091 85.869-8.531 128.839-4.002 23.801-2.001 47.708-5.652 71.545-2 15.973 2.001 36.545-7.933 49.921-6.319 8.531-15.868 9.549-25.593 7.091-9.83-4.283-14.393-12.568-19.483-21.45-10.813-20.607-22.995-40.406-33.948-60.944-4.423-7.126-8.706-17.271-17.939-18.816-30.926-6.74-62.944-8.39-93.871-15.095-15.201-3.265-20.783-15.026-26.857-27.839-25.977-60.768-50.763-122.203-77.232-182.761-5.476 6.109-7.654 13.481-10.356 21.063-19.659 58.207-40.688 116.236-60.663 174.336-4.353 12.427-14.148 27.207-28.787 27.207-21.835.561-45.111.28-66.911-.878-22.151-3.125-44.865-2.668-67.227-1.826-5.899 16.886-8.461 35.247-12.498 52.905-5.652 24.539-10.848 49.183-15.903 73.862-2.457 10.04-4.318 22.397-13.516 28.645-7.056 5.512-17.799 7.303-25.381 1.861-8.777-5.967-12.253-15.165-16.254-24.503-12.849-32.367-27.137-64.102-40.336-96.33-5.864-13.726-10.567-27.452-18.642-40.126-30.495-2.372-58.732 2.258-88.92 2.655-.24.003-3.797.009-4.085.012l.923-48.058c35.105.176 70.211-1.193 105.282-.948 10.672 0 19.098 6.389 24.082 15.481 16.044 30.894 25.276 65.543 42.864 95.594 10.287-26.54 11.901-56.627 20.432-83.728 3.967-11.9 13.059-20.607 25.522-22.959 21.028-1.966 41.249-.175 62.138 2.107 24.819.561 49.955 1.263 74.774.105 4.494-9.584 8.251-19.414 11.585-29.454 24.399-71.335 49.886-142.213 74.46-213.408 4.739-12.076 10.636-22.537 25.556-20.782 13.656-1.229 19.343 12.603 24.294 22.783 28.822 69.194 57.713 138.527 86.746 207.651 3.229 7.408 6.424 15.376 11.163 21.941 6.636 4.598 16.289 5.02 24.118 6.425 21.345 2.702 42.548 6.283 63.821 9.373 9.83 1.719 18.922 3.229 26.435 10.391 10.146 9.865 16.57 24.749 24.329 36.685 6.915-21.485 2.562-42.021 5.967-63.857 3.23-18.641 1.124-37.388 4.107-56.064 3.687-42.056 6.776-84.394 9.374-126.556 3.264-18.606 1.614-37.353 4.107-55.994 2.704-18.676 1.264-37.528 4.283-56.239 1.65-26.997 3.967-53.852 5.617-80.849 3.546-20.818 1.405-41.775 4.459-62.593 2.422-16.5.772-32.964 3.265-49.465 2.843-17.411 1.439-34.93 3.896-52.377 2.141-16.535 1.018-33.105 3.37-49.604 2.142-15.201 1.229-30.472 3.335-45.672 2.352-16.253 1.123-32.613 3.687-48.868 2.527-16.429.912-32.823 3.264-49.217 3.055-20.748 1.194-41.635 4.739-62.384.808-26.153 4.038-51.956 5.021-78.145 3.475-22.888 2.176-45.883 5.757-68.806-.246-24.083 4.283-47.464 4.318-71.476 2.703-35.106 5.863-70.247 7.582-105.388 3.265-19.694 1.615-39.564 4.846-59.258 2.071-15.341.701-30.647 2.913-46.024 2.843-19.729 1.264-39.564 4.529-59.293 1.053-25.979 4.247-51.676 5.125-77.689 3.897-22.046 1.756-44.198 5.372-66.279 2.071-15.13-1.018-32.121 3.896-46.48C844.13 9.533 852.661 2.511 861.613.054" style="fill:#ef0001;fill-rule:nonzero"></path><path d="M2218.93 1363.46c-43.691 0-74.961-7.711-93.809-23.131-18.847-15.42-28.271-39.409-28.271-71.963 0-8.567.429-17.348 1.285-26.343.857-8.996 2.57-19.062 5.14-30.199l119.51-566.707c11.137-51.402 30.199-89.525 57.184-114.369 26.987-24.846 67.894-37.268 122.723-37.268h489.605l-35.982 173.482H2463.09c-20.561 0-34.483 3.213-41.764 9.639-7.283 6.424-13.066 19.489-17.348 39.194l-91.239 424.066c-.857 4.284-1.5 7.925-1.928 10.923-.429 2.998-.643 6.21-.643 9.638 0 9.424 2.999 16.277 8.996 20.561 5.997 4.283 17.134 6.425 33.411 6.425h395.796l-37.266 176.052H2218.93Zm718.343 0c-32.554 0-56.114-6.212-70.678-18.634-14.563-12.422-21.846-31.055-21.846-55.899 0-11.994 2.142-27.843 6.426-47.547l32.126-154.206c5.14-23.988 11.137-44.12 17.99-60.397 6.854-16.277 15.421-29.129 25.702-38.552 10.28-9.423 22.702-16.063 37.266-19.918 14.564-3.856 32.126-5.783 52.687-5.783h330.258l-23.13 110.514h-236.45c-11.994 0-20.561 2.142-25.701 6.425-5.141 4.285-8.996 13.279-11.565 26.986l-14.136 68.108c-.857 4.283-1.499 7.711-1.927 10.281a46.75 46.75 0 0 0-.643 7.71c0 11.137 8.139 16.705 24.416 16.705h300.701l68.109-318.692c.855-3.427 1.284-8.139 1.284-14.136 0-6.853-2.141-12.208-6.425-16.063-4.283-3.855-12.422-5.782-24.416-5.782h-440.773l29.557-141.356h532.011c37.695 0 64.253 6.211 79.673 18.633 15.421 12.423 23.131 31.913 23.131 58.471 0 11.993-2.142 28.699-6.426 50.116L3503.98 1363.46h-566.707Zm697.783 0 137.5-650.236h174.766l-15.42 70.678c16.277-24.844 34.481-42.835 54.614-53.972 20.133-11.137 44.335-16.706 72.606-16.706h188.902l-33.411 155.491h-259.581c-12.85 0-22.488 2.357-28.913 7.068-6.425 4.712-11.351 14.35-14.777 28.914l-96.38 458.763h-179.906Zm580.842 0 30.841-149.066h445.912c13.708 0 22.917-2.142 27.629-6.425 4.712-4.284 8.353-12.423 10.923-24.417l14.135-64.252c.857-2.57 1.286-5.996 1.286-10.28 0-11.138-8.567-16.705-25.701-16.705h-348.249c-29.128 0-50.331-5.783-63.61-17.349-13.279-11.566-19.918-27.2-19.918-46.904 0-8.568 1.284-17.991 3.855-28.271l35.982-173.482c7.71-38.552 22.273-67.037 43.691-85.456 21.417-18.419 54.829-27.629 100.234-27.629h537.151l-30.841 145.211h-443.342c-13.708 0-23.56 2.57-29.557 7.71-5.997 5.141-10.28 14.136-12.85 26.987l-11.566 53.971c-.856 2.571-1.284 6.426-1.284 11.565 0 13.708 8.994 20.562 26.985 20.562h352.104c29.985 0 51.617 5.996 64.895 17.99 13.279 11.994 19.918 27.843 19.918 47.548 0 4.283-.214 8.567-.642 12.849a133.038 133.038 0 0 1-1.928 12.852l-38.552 179.906c-8.566 38.552-23.558 67.037-44.976 85.456-21.417 18.419-54.828 27.629-100.234 27.629h-542.291Zm798.016 0 35.982-169.627h463.902c15.421 0 26.773-2.998 34.054-8.995 7.283-5.998 12.636-17.134 16.064-33.411l25.7-120.795c.857-3.427 1.285-8.139 1.285-14.136 0-15.42-11.136-23.13-33.411-23.13h-343.109c-35.123 0-60.61-7.497-76.46-22.489-15.848-14.993-23.773-36.196-23.773-63.611 0-10.279 1.285-22.701 3.855-37.266l47.547-224.883c11.137-51.402 29.985-89.525 56.542-114.369 26.558-24.846 68.108-37.268 124.65-37.268h541.006l-34.696 165.772h-461.334c-13.706 0-23.558 2.998-29.556 8.996-5.996 5.997-10.708 16.705-14.134 32.125l-24.417 114.37c-.856 3.427-1.5 6.425-1.928 8.996a46.858 46.858 0 0 0-.642 7.71c0 12.85 9.423 19.276 28.271 19.276h348.249c35.981 0 61.896 7.71 77.745 23.13 15.849 15.422 23.774 36.839 23.774 64.253 0 11.138-1.286 23.131-3.855 35.982l-50.118 237.734c-11.137 51.402-29.983 89.525-56.541 114.369-26.558 24.844-67.679 37.267-123.366 37.267h-551.286Zm943.228 0c-36.839 0-63.183-6.212-79.031-18.634-15.849-12.422-23.774-31.912-23.774-58.469 0-11.994 2.142-28.7 6.426-50.117l83.527-395.796c9.424-43.691 25.06-75.818 46.904-96.379 21.846-20.56 56.329-30.841 103.448-30.841h439.487c32.554 0 55.9 6.211 70.035 18.633 14.135 12.423 21.204 31.056 21.204 55.9 0 15.42-1.714 31.27-5.141 47.547l-53.972 255.725h-433.062l21.845-107.944h262.151l19.275-87.384c.857-4.283 1.286-9.852 1.286-16.705 0-6.853-1.927-11.565-5.783-14.136-3.855-2.57-10.923-3.855-21.203-3.855h-258.295c-14.565 0-24.416 2.356-29.556 7.067-5.141 4.712-9.424 14.35-12.851 28.915l-60.397 280.141c-.857 4.283-1.5 7.924-1.928 10.922-.429 2.999-.642 5.783-.642 8.353 0 7.711 2.141 12.85 6.425 15.421 4.283 2.57 11.993 3.855 23.131 3.855h438.202l-30.841 147.781h-526.87Zm801.871 0c-35.982 0-61.897-6.212-77.746-18.634-15.849-12.422-23.774-31.912-23.774-58.469 0-11.994 2.143-28.7 6.426-50.117l149.065-704.208h179.908l-38.551 181.192h156.775L7081.56 854.58h-156.776l-70.677 332.828c-1.714 8.566-2.571 14.135-2.571 16.706 0 11.993 9.424 17.991 28.272 17.991h118.224l-29.556 141.355h-209.463ZM1484.6 1997.83v-241.818h78.299c29.664 0 48.971 1.182 57.977 3.602 13.847 3.659 25.444 11.54 34.788 23.698 9.343 12.159 14.015 27.862 14.015 47.114 0 14.86-2.701 27.3-8.049 37.432-5.404 10.132-12.214 18.069-20.489 23.867-8.274 5.742-16.718 9.569-25.274 11.427-11.652 2.308-28.483 3.49-50.547 3.49h-31.748v91.188H1484.6Zm48.972-200.952v68.898h26.625c19.195 0 31.972-1.295 38.445-3.828 6.474-2.533 11.54-6.474 15.199-11.934 3.658-5.403 5.516-11.652 5.516-18.856 0-8.838-2.589-16.099-7.711-21.84-5.179-5.742-11.652-9.344-19.589-10.808-5.798-1.069-17.45-1.632-35.012-1.632h-23.473Zm176.297-40.866h48.972v131.041c0 20.826.619 34.28 1.801 40.415 2.083 9.907 6.98 17.9 14.748 23.867 7.825 6.023 18.463 9.007 31.973 9.007 13.678 0 24.035-2.816 31.014-8.501 6.98-5.685 11.146-12.608 12.553-20.883 1.407-8.274 2.14-21.953 2.14-41.091v-133.855h48.97v127.157c0 29.045-1.294 49.591-3.939 61.58-2.646 11.99-7.487 22.121-14.58 30.396-7.035 8.274-16.492 14.804-28.313 19.702-11.877 4.896-27.3 7.373-46.382 7.373-23.022 0-40.471-2.645-52.349-7.993-11.877-5.347-21.277-12.271-28.201-20.827-6.923-8.555-11.426-17.449-13.622-26.85-3.208-13.847-4.785-34.336-4.785-61.411v-129.127Zm129.69-36.475c0 8.836-3.151 16.38-9.399 22.683-6.304 6.249-13.848 9.401-22.685 9.401-8.838 0-16.38-3.152-22.685-9.401-6.247-6.303-9.4-13.847-9.4-22.683 0-8.838 3.153-16.381 9.4-22.685 6.305-6.249 13.847-9.4 22.685-9.4 8.837 0 16.381 3.096 22.685 9.343 6.248 6.193 9.399 13.792 9.399 22.742Zm-17.561 0c0-4.053-1.408-7.431-4.222-10.302-2.871-2.814-6.248-4.221-10.301-4.221-3.996 0-7.43 1.407-10.301 4.221-2.814 2.871-4.222 6.249-4.222 10.302 0 3.996 1.408 7.429 4.222 10.3 2.871 2.814 6.305 4.221 10.301 4.221 4.053 0 7.43-1.407 10.301-4.221 2.814-2.871 4.222-6.304 4.222-10.3Zm218.571 36.475h48.971v153.219c0 20.039-1.745 35.462-5.291 46.269-4.728 14.072-13.284 25.387-25.725 33.943-12.383 8.499-28.763 12.777-49.139 12.777-23.868 0-42.218-6.642-55.052-19.983-12.89-13.34-19.363-32.929-19.475-58.709l46.269-5.404c.563 13.791 2.532 23.529 6.023 29.214 5.235 8.669 13.172 13.004 23.866 13.004 10.752 0 18.407-3.096 22.853-9.345 4.448-6.191 6.7-19.082 6.7-38.67v-156.315Zm255.72 152.656 47.283 14.523c-7.261 26.624-19.363 46.381-36.25 59.328-16.887 12.891-38.276 19.364-64.226 19.364-32.14 0-58.54-10.976-79.255-32.93-20.658-21.952-31.016-51.954-31.016-90.062 0-40.247 10.415-71.544 31.184-93.835 20.772-22.289 48.128-33.435 82.015-33.435 29.608 0 53.643 8.781 72.105 26.288 11.033 10.357 19.252 25.217 24.768 44.637l-48.296 11.483c-2.871-12.497-8.838-22.404-17.901-29.665-9.118-7.261-20.151-10.864-33.097-10.864-17.957 0-32.535 6.417-43.68 19.308-11.203 12.834-16.775 33.661-16.775 62.48 0 30.509 5.517 52.293 16.493 65.239 11.033 13.003 25.33 19.476 42.948 19.476 13.004 0 24.205-4.109 33.549-12.383 9.344-8.275 16.098-21.221 20.151-38.952Zm-110.438-223.243h37.488l17.731 24.655 19.081-24.655h37.151l-34.055 48.633h-42.836l-34.56-48.633Zm189.525 192.959c0-24.654 3.715-45.369 11.088-62.143 5.461-12.327 13.004-23.417 22.516-33.21 9.513-9.795 19.926-17.056 31.241-21.84 15.085-6.361 32.479-9.57 52.179-9.57 35.688 0 64.171 11.089 85.617 33.211 21.389 22.178 32.085 52.968 32.085 92.427 0 39.12-10.64 69.742-31.86 91.807-21.221 22.122-49.647 33.154-85.166 33.154-35.969 0-64.619-10.976-85.84-32.985-21.221-21.952-31.86-52.236-31.86-90.851Zm50.322-1.632c0 27.413 6.361 48.183 19.026 62.368 12.665 14.129 28.764 21.222 48.24 21.222 19.532 0 35.518-7.037 48.071-21.053 12.496-14.072 18.744-35.124 18.744-63.212 0-27.752-6.079-48.466-18.294-62.087-12.159-13.679-28.314-20.49-48.521-20.49-20.152 0-36.42 6.924-48.747 20.715-12.327 13.847-18.519 34.674-18.519 62.537Zm284.372 121.078-86.516-241.818h52.912l61.412 178.999 58.934-178.999h52.011l-86.009 241.818h-52.744Zm163.408 0v-241.818h47.395l99.52 162.056v-162.056h45.256v241.818h-48.915l-97.999-158.961v158.961h-45.257Zm461.74 0h-52.743l-20.883-55.052h-96.986l-20.095 55.052h-51.787l93.89-241.818h51.731l96.873 241.818Zm-89.499-95.917-33.606-89.5-32.647 89.5h66.253Zm184.009 17.563 47.62-4.729c2.87 15.93 8.612 27.582 17.337 35.068 8.724 7.486 20.489 11.201 35.293 11.201 15.649 0 27.47-3.32 35.406-9.963 7.937-6.641 11.934-14.409 11.934-23.303 0-5.741-1.689-10.583-5.01-14.635-3.322-3.996-9.175-7.486-17.506-10.414-5.685-2.026-18.632-5.516-38.896-10.582-26.062-6.53-44.356-14.523-54.882-24.035-14.804-13.341-22.178-29.609-22.178-48.803 0-12.328 3.49-23.923 10.414-34.674 6.98-10.752 16.999-18.913 30.114-24.543 13.116-5.629 28.877-8.443 47.452-8.443 30.228 0 53.025 6.699 68.279 20.152 15.31 13.453 23.304 31.353 24.091 53.812l-48.971 1.689c-2.083-12.496-6.53-21.446-13.34-26.907-6.811-5.46-17.056-8.218-30.678-8.218-14.072 0-25.105 2.927-33.042 8.782-5.122 3.77-7.711 8.781-7.711 15.085 0 5.742 2.42 10.639 7.261 14.692 6.135 5.234 21.052 10.638 44.75 16.267 23.698 5.573 41.204 11.426 52.517 17.393 11.371 6.023 20.265 14.185 26.682 24.598 6.416 10.414 9.625 23.248 9.625 38.502 0 13.848-3.828 26.85-11.539 38.953-7.712 12.101-18.576 21.108-32.648 26.962-14.072 5.911-31.634 8.837-52.63 8.837-30.565 0-54.038-7.036-70.418-21.164-16.38-14.073-26.118-34.618-29.326-61.58Zm238.102 78.354v-241.818h78.298c29.665 0 48.972 1.182 57.978 3.602 13.847 3.659 25.443 11.54 34.787 23.698 9.344 12.159 14.016 27.862 14.016 47.114 0 14.86-2.702 27.3-8.05 37.432-5.403 10.132-12.214 18.069-20.488 23.867-8.275 5.742-16.718 9.569-25.274 11.427-11.652 2.308-28.483 3.49-50.548 3.49h-31.747v91.188h-48.972Zm48.972-200.952v68.898h26.624c19.195 0 31.972-1.295 38.446-3.828 6.473-2.533 11.539-6.474 15.198-11.934 3.658-5.403 5.516-11.652 5.516-18.856 0-8.838-2.589-16.099-7.711-21.84-5.178-5.742-11.652-9.344-19.589-10.808-5.798-1.069-17.449-1.632-35.011-1.632h-23.473Zm166.165 81.506c0-24.654 3.715-45.369 11.089-62.143 5.46-12.327 13.003-23.417 22.516-33.21 9.513-9.795 19.926-17.056 31.241-21.84 15.085-6.361 32.478-9.57 52.179-9.57 35.688 0 64.17 11.089 85.617 33.211 21.388 22.178 32.084 52.968 32.084 92.427 0 39.12-10.639 69.742-31.86 91.807-21.221 22.122-49.646 33.154-85.165 33.154-35.969 0-64.62-10.976-85.841-32.985-21.221-21.952-31.86-52.236-31.86-90.851Zm50.323-1.632c0 27.413 6.361 48.183 19.026 62.368 12.665 14.129 28.763 21.222 48.239 21.222 19.533 0 35.519-7.037 48.072-21.053 12.495-14.072 18.744-35.124 18.744-63.212 0-27.752-6.08-48.466-18.295-62.087-12.158-13.679-28.313-20.49-48.521-20.49-20.151 0-36.419 6.924-48.746 20.715-12.327 13.847-18.519 34.674-18.519 62.537Zm222.51 121.078v-241.818h102.842c25.836 0 44.636 2.195 56.344 6.529 11.764 4.335 21.109 12.046 28.145 23.135 7.036 11.145 10.582 23.811 10.582 38.108 0 18.182-5.291 33.154-15.929 44.974-10.639 11.822-26.513 19.252-47.677 22.348 10.526 6.135 19.194 12.89 26.006 20.263 6.867 7.374 16.098 20.49 27.694 39.291l29.495 47.17h-58.372l-35.012-52.8c-12.552-18.744-21.164-30.565-25.836-35.462-4.616-4.841-9.514-8.217-14.692-10.018-5.235-1.803-13.453-2.703-24.711-2.703h-9.907v100.983H4155.8Zm48.972-139.485h36.138c23.417 0 37.995-1.012 43.849-2.983 5.798-1.97 10.413-5.403 13.678-10.245 3.322-4.84 4.954-10.919 4.954-18.181 0-8.162-2.195-14.692-6.53-19.758-4.334-5.009-10.47-8.162-18.35-9.456-3.996-.563-15.873-.844-35.631-.844h-38.108v61.467Zm249.305 139.485v-200.952h-71.6v-40.866h191.833v40.866h-71.261v200.952h-48.972Zm135.713-119.446c0-24.654 3.715-45.369 11.089-62.143 5.46-12.327 13.003-23.417 22.516-33.21 9.513-9.795 19.926-17.056 31.241-21.84 15.085-6.361 32.478-9.57 52.179-9.57 35.688 0 64.17 11.089 85.616 33.211 21.389 22.178 32.085 52.968 32.085 92.427 0 39.12-10.639 69.742-31.86 91.807-21.221 22.122-49.646 33.154-85.165 33.154-35.969 0-64.62-10.976-85.841-32.985-21.221-21.952-31.86-52.236-31.86-90.851Zm50.323-1.632c0 27.413 6.361 48.183 19.026 62.368 12.665 14.129 28.763 21.222 48.239 21.222 19.533 0 35.519-7.037 48.072-21.053 12.495-14.072 18.744-35.124 18.744-63.212 0-27.752-6.079-48.466-18.295-62.087-12.158-13.679-28.313-20.49-48.521-20.49-20.151 0-36.419 6.924-48.746 20.715-12.327 13.847-18.519 34.674-18.519 62.537Zm284.372 121.078-86.516-241.818h52.912l61.412 178.999 58.934-178.999h52.011l-86.009 241.818h-52.744Zm163.407 0v-241.818h47.396l99.519 162.056v-162.056h45.257v241.818h-48.916l-97.998-158.961v158.961h-45.258Zm242.213 0v-241.818h48.971v241.818h-48.971Zm-7.767-263.772 22.965-49.309h51.674l-45.595 49.309h-29.044Zm257.972 174.61 47.283 14.523c-7.261 26.624-19.364 46.381-36.25 59.328-16.887 12.891-38.276 19.364-64.226 19.364-32.141 0-58.54-10.976-79.255-32.93-20.658-21.952-31.016-51.954-31.016-90.062 0-40.247 10.414-71.544 31.184-93.835 20.772-22.289 48.128-33.435 82.014-33.435 29.608 0 53.644 8.781 72.106 26.288 11.033 10.357 19.252 25.217 24.768 44.637l-48.297 11.483c-2.871-12.497-8.837-22.404-17.9-29.665-9.118-7.261-20.151-10.864-33.097-10.864-17.957 0-32.535 6.417-43.68 19.308-11.203 12.834-16.775 33.661-16.775 62.48 0 30.509 5.517 52.293 16.493 65.239 11.033 13.003 25.33 19.476 42.948 19.476 13.004 0 24.205-4.109 33.549-12.383 9.344-8.275 16.098-21.221 20.151-38.952Zm89.218 89.162v-241.818h48.972v95.241h95.241v-95.241h48.972v241.818h-48.972v-105.711H5718.5v105.711h-48.972Zm399.597 0-86.516-241.818h52.911l61.412 178.999 58.935-178.999h52.011l-86.01 241.818h-52.743Zm153.275-119.446c0-24.654 3.715-45.369 11.089-62.143 5.46-12.327 13.003-23.417 22.516-33.21 9.513-9.795 19.926-17.056 31.241-21.84 15.085-6.361 32.478-9.57 52.179-9.57 35.688 0 64.171 11.089 85.616 33.211 21.389 22.178 32.085 52.968 32.085 92.427 0 39.12-10.639 69.742-31.86 91.807-21.221 22.122-49.646 33.154-85.166 33.154-35.968 0-64.619-10.976-85.84-32.985-21.221-21.952-31.86-52.236-31.86-90.851Zm50.323-1.632c0 27.413 6.361 48.183 19.026 62.368 12.664 14.129 28.764 21.222 48.239 21.222 19.533 0 35.519-7.037 48.071-21.053 12.496-14.072 18.745-35.124 18.745-63.212 0-27.752-6.079-48.466-18.294-62.087-12.159-13.679-28.314-20.49-48.522-20.49-20.151 0-36.419 6.924-48.746 20.715-12.328 13.847-18.519 34.674-18.519 62.537Zm201.234 121.078v-43.906l127.438-157.046h-112.916v-40.866h176.973v37.825l-132.392 163.127h137.458v40.866h-196.561Zm227.576-241.818h48.972v131.041c0 20.826.619 34.28 1.801 40.415 2.083 9.907 6.98 17.9 14.748 23.867 7.825 6.023 18.463 9.007 31.972 9.007 13.678 0 24.036-2.816 31.016-8.501 6.979-5.685 11.145-12.608 12.552-20.883 1.407-8.274 2.139-21.953 2.139-41.091v-133.855h48.972v127.157c0 29.045-1.295 49.591-3.94 61.58-2.646 11.99-7.486 22.121-14.58 30.396-7.035 8.274-16.492 14.804-28.313 19.702-11.877 4.896-27.3 7.373-46.382 7.373-23.022 0-40.471-2.645-52.349-7.993-11.877-5.347-21.277-12.271-28.201-20.827-6.923-8.555-11.426-17.449-13.622-26.85-3.208-13.847-4.785-34.336-4.785-61.411v-129.127Zm129.691-36.475c0 8.836-3.152 16.38-9.4 22.683-6.304 6.249-13.847 9.401-22.685 9.401s-16.38-3.152-22.685-9.401c-6.247-6.303-9.4-13.847-9.4-22.683 0-8.838 3.153-16.381 9.4-22.685 6.305-6.249 13.847-9.4 22.685-9.4s16.381 3.096 22.685 9.343c6.248 6.193 9.4 13.792 9.4 22.742Zm-17.562 0c0-4.053-1.407-7.431-4.221-10.302-2.871-2.814-6.249-4.221-10.302-4.221-3.996 0-7.43 1.407-10.301 4.221-2.814 2.871-4.222 6.249-4.222 10.302 0 3.996 1.408 7.429 4.222 10.3 2.871 2.814 6.305 4.221 10.301 4.221 4.053 0 7.431-1.407 10.302-4.221 2.814-2.871 4.221-6.304 4.221-10.3" style="fill:#fff;fill-rule:nonzero"></path></svg>
</svg>