<svg xmlns="http://www.w3.org/2000/svg" viewBox="0 0 2546 2546">
  <rect width="2546" height="2546" rx="480" fill="#0a0a0c"/>
  <svg x="323" y="323" width="1900" height="1900" viewBox="480 40 1400 2470" preserveAspectRatio="xMidYMid meet">
    <path d="M861.609.054c6.143-.597 12.708 4.353 16.991 8.285 9.444 8.987 8.426 23.345 10.076 35.246 2.668 18.676.983 37.422 3.475 56.098 2.633 17.482 1.545 35.141 4.353 52.624 5.582 89.168 14.077 178.197 20.01 267.4 11.094 138.282 20.853 275.861 31.736 413.932 2.844 18.606 1.194 37.386 4.494 55.957 3.3 56.31 9.513 112.655 12.672 169.069 3.266 18.502 1.581 37.142 4.6 55.643 2.036 14.043.948 28.12 2.949 42.162 2.668 17.483 1.72 35.141 4.458 52.623 1.123 25.172 4.563 49.956 5.266 75.162 3.37 21.73 1.931 43.601 5.476 65.297 1.896 39.037 6.916 77.759 8.601 116.726 3.23 20.712 1.861 41.565 5.266 62.243 3.089 56.625 9.338 113.322 12.392 169.946 3.265 19.413 1.896 38.967 4.915 58.381 4.072 57.257 9.022 115.287 12.884 172.79 3.125 18.395 1.51 36.931 4.458 55.327 2.177 15.2 1.124 30.506 3.44 45.707 4.705 50.237 7.233 100.683 12.007 150.779.667 16.043-1.228 35.632 5.863 50.342 5.547-21.766 6.424-44.936 8.565-67.227 17.729-189.957 35.914-379.845 53.712-569.766 2.949-21.835 1.966-43.18 7.407-64.91 3.722-12.217 14.955-21.765 28.121-20.923 21.098 0 42.407.14 63.47 1.334 39.6 4.739 80.638-.457 120.343 5.055 20.221 1.018 41.285 1.088 61.54.773 6.635.14 9.9-4.67 14.253-8.847 67.296-77.83 135.893-154.395 203.472-231.874 12.533-14.217 24.539-29.559 38.756-42.161 7.829-6.355 16.852-11.41 26.856-6.425 12.919 7.161 22.398 22.011 31.49 33.386 57.82 73.16 117.148 145.197 174.336 218.884 5.405 6.67 11.092 12.181 20.325 11.971 146.427.281 292.958.948 438.962 1.159 12.919-.036 25.592 2.457 38.51 2.351 71.371-.035 4588.45 18.57 4659.86 18.641l.503 65.336s-4895.29-41.639-5134.39-41.639c-12.392 0-27.523-1.228-38.055-8.355-11.163-8.215-19.834-21.239-28.505-32.016-46.832-58.347-93.416-117.008-140.458-175.249-11.234-13.656-20.678-28.716-33.596-40.125-29.84 34.403-60.488 68.175-89.871 102.93-39.67 44.549-79.269 89.168-118.482 134.139-10.742 12.252-21.238 26.259-33.911 36.545-6.495 5.161-14.113 7.197-22.328 7.126-19.658.211-39.178.14-58.661-2.457-31.912-1.931-64.103.21-95.98-2.176-18.746-2.809-37.387-2.142-56.274-2.529-9.689-.069-19.132-.772-28.716 1.229-3.826 20.116-3.967 40.267-6.039 60.558-27.241 290.113-54.659 580.262-82.357 870.339-1.194 15.235 1.298 36.862-8.356 49.675-7.793 11.619-25.943 12.042-34.263.912-10.461-12.427-5.722-31.559-7.933-46.936-3.336-20.396-1.967-40.967-5.091-61.364-3.511-56.695-9.128-113.672-12.744-170.368-3.229-18.641-1.474-37.423-4.353-56.028-2.176-15.166-1.263-30.472-3.511-45.638-2.387-17.658-.877-35.317-3.685-52.905-2.317-24.644-4.985-49.042-5.653-73.792-3.229-18.571-2.316-37.282-4.703-55.888-13.902-180.198-27.593-360.359-41.706-540.522-4.318-46.971-5.968-94.083-11.374-140.563-1.896-45.532-6.846-91.169-9.619-136.877-5.372-66.596-9.9-134.28-15.763-200.805-.035-15.552-1.825-30.647-3.511-46.059-.632-21.941-3.054-43.741-5.09-65.612-3.019-19.589-1.264-39.318-4.423-58.907-6.003-89.309-14.112-182.655-20.431-271.051-2.739-18.396-1.44-37.002-4.494-55.397-2.317-33.632-3.616-67.755-9.549-101-5.231 12.393-5.546 24.399-5.511 37.599-3.932 51.534-7.689 106.019-11.515 157.765-3.054 18.536-1.229 37.248-4.177 55.819-2.282 16.393-.668 32.788-3.3 49.182-2.633 16.325-1.194 32.683-3.582 49.043-2.071 15.131-1.298 30.366-3.615 45.462-2.072 15.306-.913 30.647-3.125 45.918-2.808 17.939-.912 35.878-3.651 53.817-2.948 18.501-1.053 37.211-4.072 55.782-2.072 25.768-4.809 51.325-5.512 77.233-3.37 21.87-1.685 43.847-5.09 65.683-1.65 14.217-.632 28.435-2.668 42.653-3.054 19.659-1.229 39.459-4.599 59.118-2.106 43.953-7.056 87.448-8.987 131.401-3.195 18.36-1.545 36.826-4.037 55.221-3.02 19.659-1.405 39.53-4.634 59.223-2.106 42.969-7.091 85.869-8.531 128.839-4.002 23.801-2.001 47.708-5.652 71.545-2 15.973 2.001 36.545-7.933 49.921-6.319 8.531-15.868 9.549-25.593 7.091-9.83-4.283-14.393-12.568-19.483-21.45-10.813-20.607-22.995-40.406-33.948-60.944-4.423-7.126-8.706-17.271-17.939-18.816-30.926-6.74-62.944-8.39-93.871-15.095-15.201-3.265-20.783-15.026-26.857-27.839-25.977-60.768-50.763-122.203-77.232-182.761-5.476 6.109-7.654 13.481-10.356 21.063-19.659 58.207-40.688 116.236-60.663 174.336-4.353 12.427-14.148 27.207-28.787 27.207-21.835.561-45.111.28-66.911-.878-22.151-3.125-44.865-2.668-67.227-1.826-5.899 16.886-8.461 35.247-12.498 52.905-5.652 24.539-10.848 49.183-15.903 73.862-2.457 10.04-4.318 22.397-13.516 28.645-7.056 5.512-17.799 7.303-25.381 1.861-8.777-5.967-12.253-15.165-16.254-24.503-12.849-32.367-27.137-64.102-40.336-96.33-5.864-13.726-10.567-27.452-18.642-40.126-30.495-2.372-58.732 2.258-88.92 2.655-.24.003-3.797.009-4.085.012l.923-48.058c35.105.176 70.211-1.193 105.282-.948 10.672 0 19.098 6.389 24.082 15.481 16.044 30.894 25.276 65.543 42.864 95.594 10.287-26.54 11.901-56.627 20.432-83.728 3.967-11.9 13.059-20.607 25.522-22.959 21.028-1.966 41.249-.175 62.138 2.107 24.819.561 49.955 1.263 74.774.105 4.494-9.584 8.251-19.414 11.585-29.454 24.399-71.335 49.886-142.213 74.46-213.408 4.739-12.076 10.636-22.537 25.556-20.782 13.656-1.229 19.343 12.603 24.294 22.783 28.822 69.194 57.713 138.527 86.746 207.651 3.229 7.408 6.424 15.376 11.163 21.941 6.636 4.598 16.289 5.02 24.118 6.425 21.345 2.702 42.548 6.283 63.821 9.373 9.83 1.719 18.922 3.229 26.435 10.391 10.146 9.865 16.57 24.749 24.329 36.685 6.915-21.485 2.562-42.021 5.967-63.857 3.23-18.641 1.124-37.388 4.107-56.064 3.687-42.056 6.776-84.394 9.374-126.556 3.264-18.606 1.614-37.353 4.107-55.994 2.704-18.676 1.264-37.528 4.283-56.239 1.65-26.997 3.967-53.852 5.617-80.849 3.546-20.818 1.405-41.775 4.459-62.593 2.422-16.5.772-32.964 3.265-49.465 2.843-17.411 1.439-34.93 3.896-52.377 2.141-16.535 1.018-33.105 3.37-49.604 2.142-15.201 1.229-30.472 3.335-45.672 2.352-16.253 1.123-32.613 3.687-48.868 2.527-16.429.912-32.823 3.264-49.217 3.055-20.748 1.194-41.635 4.739-62.384.808-26.153 4.038-51.956 5.021-78.145 3.475-22.888 2.176-45.883 5.757-68.806-.246-24.083 4.283-47.464 4.318-71.476 2.703-35.106 5.863-70.247 7.582-105.388 3.265-19.694 1.615-39.564 4.846-59.258 2.071-15.341.701-30.647 2.913-46.024 2.843-19.729 1.264-39.564 4.529-59.293 1.053-25.979 4.247-51.676 5.125-77.689 3.897-22.046 1.756-44.198 5.372-66.279 2.071-15.13-1.018-32.121 3.896-46.48C844.13 9.533 852.661 2.511 861.613.054" fill="#ef0001"/>
  </svg>
</svg>